<svg width="34" height="39" viewBox="0 0 34 39" fill="none" xmlns="http://www.w3.org/2000/svg">
<path d="M8.08861 12.3056L16.5949 7.16667L25.5063 12.3056L30.7722 9.42778L16.5949 1L3.02532 9.42778L8.08861 12.3056Z" fill="url(#paint0_linear_79_21)"/>
<path fill-rule="evenodd" clip-rule="evenodd" d="M1 29.1611L16.5949 38L33 29.1611V10.8667L16.5949 19.7056L1 10.8667V29.1611ZM6.26582 26.0778V19.7056L16.5949 25.4611L27.3291 19.7056V26.0778L16.5949 32.0389L6.26582 26.0778Z" fill="url(#paint1_linear_79_21)"/>
<path d="M8.08861 12.3056L16.5949 7.16667L25.5063 12.3056L30.7722 9.42778L16.5949 1L3.02532 9.42778L8.08861 12.3056Z" stroke="#E18B40"/>
<path fill-rule="evenodd" clip-rule="evenodd" d="M1 29.1611L16.5949 38L33 29.1611V10.8667L16.5949 19.7056L1 10.8667V29.1611ZM6.26582 26.0778V19.7056L16.5949 25.4611L27.3291 19.7056V26.0778L16.5949 32.0389L6.26582 26.0778Z" stroke="#E18B40"/>
<defs>
<linearGradient id="paint0_linear_79_21" x1="33" y1="19.5" x2="1" y2="19.5" gradientUnits="userSpaceOnUse">
<stop offset="0.5" stop-color="#E18B40"/>
<stop offset="1" stop-color="#C16F27"/>
</linearGradient>
<linearGradient id="paint1_linear_79_21" x1="33" y1="19.5" x2="1" y2="19.5" gradientUnits="userSpaceOnUse">
<stop offset="0.5" stop-color="#E18B40"/>
<stop offset="1" stop-color="#C16F27"/>
</linearGradient>
</defs>
</svg>
